<svg width="17" height="16" fill="none" xmlns="http://www.w3.org/2000/svg"><path d="M11.918 0h-7.17A4.42 4.42 0 00.333 4.415v7.17A4.42 4.42 0 004.748 16h7.17a4.42 4.42 0 004.415-4.415v-7.17A4.42 4.42 0 0011.918 0zm2.996 11.585a3 3 0 01-2.996 2.995h-7.17a3 3 0 01-2.995-2.995v-7.17A3 3 0 014.748 1.42h7.17a3 3 0 012.995 2.995v7.17z" fill="#fff"/><path d="M8.333 3.877A4.127 4.127 0 004.21 8a4.127 4.127 0 004.123 4.123A4.127 4.127 0 0012.456 8a4.127 4.127 0 00-4.123-4.123zm0 6.826A2.706 2.706 0 015.63 8a2.706 2.706 0 012.703-2.703A2.706 2.706 0 0111.036 8a2.706 2.706 0 01-2.703 2.703zm4.296-8.029a1.045 1.045 0 00-1.041 1.04c0 .274.112.543.306.737.193.193.461.305.735.305.274 0 .542-.112.736-.305a1.04 1.04 0 000-1.472 1.045 1.045 0 00-.736-.305z" fill="#fff"/></svg>