<svg width="145" height="24" fill="none" xmlns="http://www.w3.org/2000/svg"><path d="M66.834 9.171c-2.152 0-3.679 1.684-3.679 4.269v9.482H59.87V6.232h3.246V8.27a4.402 4.402 0 013.91-2.156h1.181v3.057h-1.373zM57.6 14.577c0-4.977-3.541-8.699-8.333-8.699a8.589 8.589 0 00-8.53 8.7c0 4.972 3.836 8.733 8.84 8.733a8.723 8.723 0 007.2-3.564L54.394 18a5.815 5.815 0 01-4.815 2.427 5.594 5.594 0 01-5.509-4.776h13.539l-.008-1.074zm-13.46-1.53c.587-2.546 2.62-4.27 5.087-4.27 2.467 0 4.498 1.724 5.048 4.27H44.14zM30.33 5.878a8.31 8.31 0 00-5.901 2.467V0h-3.285v22.922h3.246v-2.117a8.44 8.44 0 005.948 2.506 8.72 8.72 0 100-17.433h-.008zm-.236 14.498a5.78 5.78 0 115.753-5.76 5.737 5.737 0 01-5.753 5.745v.015zM9.045 20.22c3.171 0 5.634-2.431 5.634-6.075V0h3.404v22.922h-3.364v-2.168A8.357 8.357 0 018.656 23.3C3.766 23.3 0 19.735 0 14.33V0h3.466v14.164c0 3.663 2.36 6.055 5.58 6.055z" fill="#262626"/><path d="M76.379 0h16.08v3.934H80.722v5.587h11.41v3.801h-11.41v5.681H92.46v3.935H76.38V0zm60.488 23.35c4.93 0 7.707-2.36 7.707-5.602 0-2.31-1.644-4.033-5.087-4.78l-3.639-.744c-2.113-.393-2.778-.787-2.778-1.574 0-1.019 1.019-1.644 2.896-1.644 2.034 0 3.541.547 3.934 2.427h4.265c-.232-3.54-2.778-5.878-7.94-5.878-4.461 0-7.593 1.842-7.593 5.41 0 2.467 1.723 4.072 5.441 4.855l4.069.94c1.605.315 2.034.748 2.034 1.413 0 1.059-1.212 1.723-3.172 1.723-2.462 0-3.871-.547-4.418-2.427h-4.288c.625 3.533 3.245 5.882 8.569 5.882zm-9.809-.428h-4.615c-2.896 0-4.501-1.802-4.501-4.076v-9.01h-3.246v-3.84h3.262v-4.82h4.288v4.82h4.812v3.84h-4.812v7.912c0 .901.626 1.334 1.606 1.334h3.206v3.84zM108.566 6.004V7.53a8.322 8.322 0 00-5.402-1.967 8.895 8.895 0 100 17.788 8.299 8.299 0 005.402-1.967v1.53h4.277V5.996l-4.277.008zm-5.047 13.633a5.175 5.175 0 115.114-5.17 5.095 5.095 0 01-1.484 3.65 5.106 5.106 0 01-3.638 1.512l.008.008z" fill="#5FB709"/></svg>