<svg width="20" height="16" fill="none" xmlns="http://www.w3.org/2000/svg"><path d="M19.333 1.893a7.806 7.806 0 01-2.277.636A4.045 4.045 0 0018.799.295a7.906 7.906 0 01-2.52.981A3.921 3.921 0 0013.385 0c-2.19 0-3.967 1.81-3.967 4.04 0 .316.035.625.103.92C6.225 4.792 3.303 3.183 1.347.738A4.068 4.068 0 00.811 2.77c0 1.402.7 2.64 1.763 3.363a3.91 3.91 0 01-1.796-.507v.05c0 1.958 1.368 3.59 3.181 3.963a3.947 3.947 0 01-1.045.141c-.256 0-.504-.026-.747-.075.505 1.606 1.97 2.774 3.704 2.806a7.864 7.864 0 01-4.925 1.727c-.32 0-.636-.02-.946-.055A11.061 11.061 0 006.08 16c7.295 0 11.283-6.157 11.283-11.496l-.013-.523a8 8 0 001.983-2.088z" fill="#fff"/></svg>