<svg width="20" height="21" fill="none" xmlns="http://www.w3.org/2000/svg"><path fill-rule="evenodd" clip-rule="evenodd" d="M10.525 1c-.084-.01-.167-.021-.252-.021a.389.389 0 00-.053.005c-.015.002-.03.004-.045.004-.027 0-.054-.002-.081-.004A.73.73 0 0010 .979c-5.514 0-10 4.477-10 9.979 0 5.502 4.486 9.978 10 9.978.032 0 .063-.002.094-.004.027-.002.054-.004.081-.004.015 0 .03.002.045.004a.4.4 0 00.053.005c.09 0 .177-.012.265-.023l.068-.009C15.838 20.59 20 16.256 20 10.959c0-5.299-4.162-9.633-9.394-9.948a6.257 6.257 0 01-.08-.01zM7.006 2.76C5.993 3.925 5.17 5.601 4.72 7.58c-1.405-.152-2.253-.33-2.595-.411a8.778 8.778 0 014.882-4.41zM1.651 8.33a8.659 8.659 0 00.19 5.769c.4-.097 1.292-.282 2.74-.439a15.338 15.338 0 01-.244-2.703c.001-.72.052-1.438.153-2.15-1.688-.188-2.6-.413-2.839-.477zm.734 6.92a24.153 24.153 0 012.464-.366c.471 1.742 1.239 3.214 2.158 4.272a8.786 8.786 0 01-4.623-3.905h.001zm3.603-.473c.647 2.5 2.225 4.354 3.296 4.802v-4.932a58.868 58.868 0 00-3.296.13zm3.297-1.373a62.23 62.23 0 00-3.524.146c-.137-.824-.176-1.695-.176-2.593 0-.699.014-1.379.098-2.035 1.01.08 2.53.137 3.602.151v4.331zM5.854 7.691c.958.073 2.359.127 3.43.14V2.336c-1.071.48-2.832 2.577-3.43 5.355zm11.99-.59c-.196.06-.987.28-2.553.465-.353-1.875-.99-3.472-1.822-4.625a8.79 8.79 0 014.374 4.16zm-3.707.588c-.587-2.813-2.353-4.928-3.424-5.372v5.514a58.429 58.429 0 003.424-.142zm-3.424 1.385a59.17 59.17 0 003.57-.155c.082.658.103 1.339.103 2.039 0 .9-.032 1.772-.165 2.596a58.67 58.67 0 00-3.508-.149v-4.33zm0 5.574v4.951c1.071-.414 2.658-2.284 3.294-4.818-.918-.07-2.223-.12-3.294-.133zm2.756 4.328c.75-1.04 1.346-2.434 1.715-4.073 1.231.142 2.007.306 2.398.405a8.797 8.797 0 01-4.113 3.668zM15.48 8.794a18.753 18.753 0 01-.075 4.883c1.52.177 2.385.392 2.73.492a8.654 8.654 0 00.62-3.21 8.66 8.66 0 00-.642-3.271l.2.567c-.056.02-.908.309-2.833.54z" fill="#fff"/></svg>